{"title":"Sherlock Holmes A Game of Shadows[2011]BRrip[Ac3-5.1]-=[CaLvIn]=","uid":7209122,"size":951175454,"categoryP":"video","categoryS":"movies","magnet":"?xt=urn:btih:05b3cf7c7dd1928fa5a7233d2852ae7b44d3094b&amp;dn=Sherlock+Holmes+A+Game+of+Shadows%5B2011%5DBRrip%5BAc3-5.1%5D-%3D%5BCaLvIn%5D%3D&amp;tr=udp%3A%2F%2Ftracker.openbittorrent.com%3A80&amp;tr=udp%3A%2F%2Fopen.demonii.com%3A1337&amp;tr=udp%3A%2F%2Ftracker.coppersurfer.tk%3A6969&amp;tr=udp%3A%2F%2Fexodus.desync.com%3A6969","seeders":1,"leechers":0,"uploader":"rhythmtheguru","files":15,"time":1335179099,"description":"General\nComplete name                    : Sherlock Holmes A Game of\n                                   Shadows[2011]BRrip[Ac3-5.1]-=[CaLvIn]=-\nImdb                             : http://www.imdb.com/title/tt1515091\nFormat                           : AVI\nFormat/Info                      : Audio Video Interleave\nFile size                        : 894 MiB\nDuration                         : 2h 8mn\nOverall bit rate                 : 971 Kbps\nWriting application              : VirtualDubMod 1.5.10.3 | www.virtualdub-fr.org || (build 2550/release)\nWriting library                  : VirtualDubMod build 2550/release\n\nVideo\nID                               : 0\nFormat                           : MPEG-4 Visual\nFormat profile                   : Advanced Simple@L5\nFormat settings, BVOP            : 2\nFormat settings, QPel            : No\nFormat settings, GMC             : No warppoints\nFormat settings, Matrix          : Default (H.263)\nCodec ID                         : XVID\nCodec ID/Hint                    : XviD\nDuration                         : 2h 8mn\nBit rate                         : 770 Kbps\nWidth                            : 720 pixels\nHeight                           : 304 pixels\nDisplay aspect ratio             : 16:9\nFrame rate                       : 23.976 fps\nColor space                      : YUV\nChroma subsampling               : 4:2:0\nBit depth                        : 8 bits\nScan type                        : Progressive\nCompression mode                 : Lossy\nBits/(Pixel*Frame)               : 0.147\nStream size                      : 709 MiB (79%)\nWriting library                  : XviD 1.2.1 (UTC 2008-12-04)\n\nAudio\nID                               : 1\nFormat                           : AC-3\nFormat/Info                      : Audio Coding 3\nMode extension                   : CM (complete main)\nCodec ID                         : 2000\nDuration                         : 2h 8mn\nBit rate mode                    : Constant\nBit rate                         : 192 Kbps\nChannel(s)                       : 6 channels\nChannel positions                : Front: L C R, Side: L R, LFE\nSampling rate                    : 48.0 KHz\nBit depth                        : 16 bits\nCompression mode                 : Lossy\nStream size                      : 177 MiB (20%)\nAlignment                        : Split accross interleaves\nInterleave, duration             : 42 ms (1.00 video frame)\nInterleave, preload duration     : 500 ms\n\nScreenShots :\n &lt;a href=&quot;\nhttp://img220.imageshack.us/img220/5897/72131154.png&quot; rel=&quot;nofollow&quot; target=&quot;_NEW&quot;&gt;\nhttp://img220.imageshack.us/img220/5897/72131154.png&lt;/a&gt; &lt;a href=&quot;\nhttp://img254.imageshack.us/img254/3711/53132067.png&quot; rel=&quot;nofollow&quot; target=&quot;_NEW&quot;&gt;\nhttp://img254.imageshack.us/img254/3711/53132067.png&lt;/a&gt; &lt;a href=&quot;\nhttp://img29.imageshack.us/img29/2105/74824262.png&quot; rel=&quot;nofollow&quot; target=&quot;_NEW&quot;&gt;\nhttp://img29.imageshack.us/img29/2105/74824262.png&lt;/a&gt; &lt;a href=&quot;\nhttp://img191.imageshack.us/img191/9726/24299004.png&quot; rel=&quot;nofollow&quot; target=&quot;_NEW&quot;&gt;\nhttp://img191.imageshack.us/img191/9726/24299004.png&lt;/a&gt; &lt;a href=&quot;\nhttp://img607.imageshack.us/img607/1800/98788597.png&quot; rel=&quot;nofollow&quot; target=&quot;_NEW&quot;&gt;\nhttp://img607.imageshack.us/img607/1800/98788597.png&lt;/a&gt; &lt;a href=&quot;\nhttp://img341.imageshack.us/img341/1821/93268958.png&quot; rel=&quot;nofollow&quot; target=&quot;_NEW&quot;&gt;\nhttp://img341.imageshack.us/img341/1821/93268958.png&lt;/a&gt; &lt;a href=&quot;\nhttp://img525.imageshack.us/img525/609/56980349.png&quot; rel=&quot;nofollow&quot; target=&quot;_NEW&quot;&gt;\nhttp://img525.imageshack.us/img525/609/56980349.png&lt;/a&gt; &lt;a href=&quot;\nhttp://img35.imageshack.us/img35/2424/90175711.png&quot; rel=&quot;nofollow&quot; target=&quot;_NEW&quot;&gt;\nhttp://img35.imageshack.us/img35/2424/90175711.png&lt;/a&gt; &lt;a href=&quot;\nhttp://img838.imageshack.us/img838/1134/27136456.png&quot; rel=&quot;nofollow&quot; target=&quot;_NEW&quot;&gt;\nhttp://img838.imageshack.us/img838/1134/27136456.png&lt;/a&gt; &lt;a href=&quot;\nhttp://img196.imageshack.us/img196/4854/54096858.png&quot; rel=&quot;nofollow&quot; target=&quot;_NEW&quot;&gt;\nhttp://img196.imageshack.us/img196/4854/54096858.png&lt;/a&gt;\n","torrent":{"xt":"urn:btih:05b3cf7c7dd1928fa5a7233d2852ae7b44d3094b","amp;dn":"Sherlock+Holmes+A+Game+of+Shadows%5B2011%5DBRrip%5BAc3-5.1%5D-%3D%5BCaLvIn%5D%3D","amp;tr":["udp%3A%2F%2Ftracker.openbittorrent.com%3A80","udp%3A%2F%2Fopen.demonii.com%3A1337","udp%3A%2F%2Ftracker.coppersurfer.tk%3A6969","udp%3A%2F%2Fexodus.desync.com%3A6969"],"infoHash":"05b3cf7c7dd1928fa5a7233d2852ae7b44d3094b","infoHashBuffer":{"type":"Buffer","data":[5,179,207,124,125,209,146,143,165,167,35,61,40,82,174,123,68,211,9,75]},"announce":[],"urlList":[]}}